<mxfile host="app.diagrams.net" modified="2023-03-29T09:05:35.446Z" agent="Mozilla/5.0 (Windows NT 10.0; Win64; x64) AppleWebKit/537.36 (KHTML, like Gecko) Chrome/111.0.0.0 Safari/537.36" version="21.1.1" etag="PEw6StUhcn98c2p7u49l" type="github">
  <diagram name="Page-1" id="9hLYritE4UNN-55p_8Cy">
    <mxGraphModel>
      <root>
        <mxCell id="0" />
        <mxCell id="1" parent="0" />
      </root>
    </mxGraphModel>
  </diagram>
</mxfile>
